<svg width="119" height="53" viewBox="0 0 119 53" fill="none" xmlns="http://www.w3.org/2000/svg">
<path d="M0 16L11 4V52H0V16Z" fill="#D7C68A"/>
<path d="M18.0469 7.8V18.54C18.0469 18.8 18.2469 19 18.5069 19H20.3869C20.6469 19 20.8469 18.8 20.8469 18.54V8.26C20.8469 8 21.0469 7.8 21.3069 7.8H28.7869C29.0469 7.8 29.2469 8 29.2469 8.26V18.54C29.2469 18.8 29.4469 19 29.7069 19H31.5869C31.8469 19 32.0469 18.8 32.0469 18.54V7.8C32.0469 6.26 30.7869 5 29.2469 5H20.8469C19.3069 5 18.0469 6.26 18.0469 7.8ZM34.643 16.2C34.643 17.74 35.903 19 37.443 19H46.783C47.043 19 47.243 18.8 47.243 18.54V16.66C47.243 16.4 47.043 16.2 46.783 16.2H37.903C37.643 16.2 37.443 16 37.443 15.74V13.86C37.443 13.6 37.643 13.4 37.903 13.4H46.783C47.043 13.4 47.243 13.2 47.243 12.94V11.06C47.243 10.8 47.043 10.6 46.783 10.6H37.903C37.643 10.6 37.443 10.4 37.443 10.14V8.26C37.443 8 37.643 7.8 37.903 7.8H46.783C47.043 7.8 47.243 7.6 47.243 7.34V5.46C47.243 5.2 47.043 5 46.783 5H37.443C35.903 5 34.643 6.26 34.643 7.8V16.2ZM60.6119 7.8C60.8719 7.8 61.0719 8 61.0719 8.26V12.94C61.0719 13.2 60.8719 13.4 60.6119 13.4H53.1319C52.8719 13.4 52.6719 13.2 52.6719 12.94V8.26C52.6719 8 52.8719 7.8 53.1319 7.8H60.6119ZM49.8719 18.54C49.8719 18.8 50.0719 19 50.3319 19H52.2119C52.4719 19 52.6719 18.8 52.6719 18.54V16.66C52.6719 16.4 52.8719 16.2 53.1319 16.2H61.0719C62.6119 16.2 63.8719 14.94 63.8719 13.4V7.8C63.8719 6.26 62.6119 5 61.0719 5H52.6719C51.1319 5 49.8719 6.26 49.8719 7.8V18.54ZM69.7475 16.2C69.4875 16.2 69.2875 16 69.2875 15.74V13.86C69.2875 13.6 69.4875 13.4 69.7475 13.4H77.2275C77.4875 13.4 77.6875 13.6 77.6875 13.86V15.74C77.6875 16 77.4875 16.2 77.2275 16.2H69.7475ZM69.7475 10.6C69.4875 10.6 69.2875 10.4 69.2875 10.14V8.26C69.2875 8 69.4875 7.8 69.7475 7.8H77.2275C77.4875 7.8 77.6875 8 77.6875 8.26V10.14C77.6875 10.4 77.4875 10.6 77.2275 10.6H69.7475ZM66.4875 16.2C66.4875 17.74 67.7475 19 69.2875 19H77.6875C79.2275 19 80.4875 17.74 80.4875 16.2V14.4C80.4875 13.76 80.2275 13.14 79.7875 12.7L79.0875 12L79.7875 11.3C80.2275 10.86 80.4875 10.24 80.4875 9.6V7.8C80.4875 6.26 79.2275 5 77.6875 5H69.2875C67.7475 5 66.4875 6.26 66.4875 7.8V16.2ZM93.8431 10.6C94.1031 10.6 94.3031 10.8 94.3031 11.06V15.74C94.3031 16 94.1031 16.2 93.8431 16.2H86.3631C86.1031 16.2 85.9031 16 85.9031 15.74V11.06C85.9031 10.8 86.1031 10.6 86.3631 10.6H93.8431ZM83.1031 16.2C83.1031 17.74 84.3631 19 85.9031 19H94.3031C95.8431 19 97.1031 17.74 97.1031 16.2V10.6C97.1031 9.06 95.8431 7.8 94.3031 7.8H86.3631C86.1031 7.8 85.9031 7.6 85.9031 7.34V5.46C85.9031 5.2 85.7031 5 85.4431 5H83.5631C83.3031 5 83.1031 5.2 83.1031 5.46V16.2ZM98.5031 18.54C98.5031 18.8 98.7031 19 98.9631 19H100.843C101.103 19 101.303 18.8 101.303 18.54V5.46C101.303 5.2 101.103 5 100.843 5H98.9631C98.7031 5 98.5031 5.2 98.5031 5.46V18.54ZM108.338 1.32V9.56C108.338 9.64 108.378 9.7 108.438 9.72C108.518 9.76 108.578 9.74 108.638 9.68L115.738 1.22C115.778 1.16 115.798 1.06 115.758 0.98C115.718 0.899999 115.658 0.859999 115.578 0.859999H108.798C108.538 0.859999 108.338 1.06 108.338 1.32ZM103.918 5.44V18.52C103.918 18.76 104.118 19 104.378 19H106.258C106.558 19 106.838 18.86 107.038 18.64L114.838 9.62C114.858 9.58 114.918 9.56 114.958 9.56C114.978 9.56 114.998 9.56 115.018 9.56C115.098 9.58 115.138 9.66 115.138 9.72V18.52C115.138 18.78 115.338 19 115.598 19H117.478C117.738 19 117.938 18.78 117.938 18.52V5.44C117.938 5.18 117.738 4.98 117.478 4.98H115.598C115.298 4.98 115.018 5.1 114.818 5.32L107.038 14.36C106.978 14.4 106.898 14.42 106.838 14.4C106.778 14.38 106.718 14.32 106.718 14.24V5.44C106.718 5.18 106.518 4.98 106.258 4.98H104.378C104.138 4.98 103.918 5.18 103.918 5.44Z" fill="#D7C68A"/>
<path d="M19.3332 27.4L17.8932 32.77C17.8732 32.83 17.8832 32.89 17.9232 32.93C17.9532 32.97 18.0032 33 18.0632 33H19.0432C19.1832 33 19.3032 32.91 19.3432 32.77L20.7232 27.63C20.7532 27.49 20.8732 27.4 21.0132 27.4H23.1932C23.3232 27.4 23.4332 27.5 23.4332 27.63V32.77C23.4332 32.9 23.5332 33 23.6632 33H24.5932C24.7232 33 24.8332 32.9 24.8332 32.77V26.23C24.8332 26.1 24.7232 26 24.5932 26H21.1532C20.2932 26 19.5532 26.57 19.3332 27.4ZM33.1324 32.77C33.1324 30.59 33.1224 28.41 33.1324 26.23C33.1324 26.11 33.0224 26 32.8924 26H31.9624C31.8124 26 31.6724 26.07 31.5724 26.18L27.6824 30.68C27.6524 30.71 27.6224 30.72 27.5824 30.71C27.5524 30.7 27.5324 30.66 27.5324 30.63V26.23C27.5324 26.11 27.4224 26 27.3024 26H26.3624C26.2324 26 26.1324 26.11 26.1324 26.23V32.77C26.1324 32.89 26.2324 33 26.3624 33H27.3024C27.4224 33 27.6024 32.92 27.6824 32.82C28.9824 31.33 30.2824 29.82 31.5724 28.32C31.6624 28.22 31.7324 28.25 31.7324 28.38V32.77C31.7324 32.89 31.8324 33 31.9624 33H32.8924C33.0224 33 33.1324 32.89 33.1324 32.77ZM34.4305 26.23V31.6C34.4305 32.37 35.0605 33 35.8305 33H41.9005C42.0305 33 42.1305 32.9 42.1305 32.77V31.83C42.1305 31.7 42.0305 31.6 41.9005 31.6H41.6605C41.5305 31.6 41.4305 31.5 41.4305 31.37V26.23C41.4305 26.1 41.3305 26 41.2005 26H40.2605C40.1305 26 40.0305 26.1 40.0305 26.23V31.37C40.0305 31.5 39.9305 31.6 39.8005 31.6H36.0605C35.9305 31.6 35.8305 31.5 35.8305 31.37V26.23C35.8305 26.1 35.7305 26 35.6005 26H34.6605C34.5305 26 34.4305 26.1 34.4305 26.23ZM43.1387 31.6C43.1387 32.37 43.7687 33 44.5387 33H49.2087C49.3387 33 49.4387 32.9 49.4387 32.77V31.83C49.4387 31.7 49.3387 31.6 49.2087 31.6H44.7687C44.6387 31.6 44.5387 31.5 44.5387 31.37V30.43C44.5387 30.3 44.6387 30.2 44.7687 30.2H49.2087C49.3387 30.2 49.4387 30.1 49.4387 29.97V29.03C49.4387 28.9 49.3387 28.8 49.2087 28.8H44.7687C44.6387 28.8 44.5387 28.7 44.5387 28.57V27.63C44.5387 27.5 44.6387 27.4 44.7687 27.4H49.2087C49.3387 27.4 49.4387 27.3 49.4387 27.17V26.23C49.4387 26.1 49.3387 26 49.2087 26H44.5387C43.7687 26 43.1387 26.63 43.1387 27.4V31.6ZM50.7531 32.76C50.7531 32.89 50.8531 32.99 50.9831 32.99H51.9231C52.0531 32.99 52.1531 32.89 52.1531 32.76V30.42C52.1531 30.29 52.2531 30.19 52.3831 30.19H56.1231C56.2531 30.19 56.3531 30.29 56.3531 30.42V32.76C56.3531 32.89 56.4531 32.99 56.5831 32.99H57.5231C57.6531 32.99 57.7531 32.89 57.7531 32.76V26.22C57.7531 26.09 57.6531 25.99 57.5231 25.99H56.5831C56.4531 25.99 56.3531 26.09 56.3531 26.22V28.56C56.3531 28.69 56.2531 28.79 56.1231 28.79H52.3831C52.2531 28.79 52.1531 28.69 52.1531 28.56V26.22C52.1531 26.09 52.0531 25.99 51.9231 25.99H50.9831C50.8531 25.99 50.7531 26.09 50.7531 26.22V32.76ZM59.0609 32.77C59.0609 32.9 59.1609 33 59.2909 33H63.9609C64.7309 33 65.3609 32.37 65.3609 31.6V30.69C65.3609 30.38 65.2309 30.07 65.0109 29.85L64.6609 29.5L65.0109 29.15C65.2309 28.93 65.3609 28.62 65.3609 28.31V27.4C65.3609 26.63 64.7309 26 63.9609 26H59.2909C59.1609 26 59.0609 26.1 59.0609 26.23V27.17C59.0609 27.3 59.1609 27.4 59.2909 27.4H63.7309C63.8609 27.4 63.9609 27.5 63.9609 27.63V28.57C63.9609 28.7 63.8609 28.8 63.7309 28.8H59.2909C59.1609 28.8 59.0609 28.9 59.0609 29.03V29.97C59.0609 30.1 59.1609 30.2 59.2909 30.2H63.7309C63.8609 30.2 63.9609 30.3 63.9609 30.43V31.37C63.9609 31.5 63.8609 31.6 63.7309 31.6H59.2909C59.1609 31.6 59.0609 31.7 59.0609 31.83V32.77ZM73.6754 32.77C73.6754 30.59 73.6654 28.41 73.6754 26.23C73.6754 26.11 73.5654 26 73.4354 26H72.5054C72.3554 26 72.2154 26.07 72.1154 26.18L68.2254 30.68C68.1954 30.71 68.1654 30.72 68.1254 30.71C68.0954 30.7 68.0754 30.66 68.0754 30.63V26.23C68.0754 26.11 67.9654 26 67.8454 26H66.9054C66.7754 26 66.6754 26.11 66.6754 26.23V32.77C66.6754 32.89 66.7754 33 66.9054 33H67.8454C67.9654 33 68.1454 32.92 68.2254 32.82C69.5254 31.33 70.8254 29.82 72.1154 28.32C72.2054 28.22 72.2754 28.25 72.2754 28.38V32.77C72.2754 32.89 72.3754 33 72.5054 33H73.4354C73.5654 33 73.6754 32.89 73.6754 32.77ZM74.7781 31.6C74.7781 32.37 75.4081 33 76.1781 33H80.3781C81.1481 33 81.7781 32.37 81.7781 31.6V27.4C81.7781 26.63 81.1481 26 80.3781 26H76.1781C75.4081 26 74.7781 26.63 74.7781 27.4V31.6ZM76.4081 31.6C76.2781 31.6 76.1781 31.5 76.1781 31.37V27.63C76.1781 27.5 76.2781 27.4 76.4081 27.4H80.1481C80.2781 27.4 80.3781 27.5 80.3781 27.63V31.37C80.3781 31.5 80.2781 31.6 80.1481 31.6H76.4081ZM83.0762 32.76C83.0762 32.89 83.1762 32.99 83.3062 32.99H84.2462C84.3762 32.99 84.4762 32.89 84.4762 32.76V30.42C84.4762 30.29 84.5762 30.19 84.7062 30.19H88.4462C88.5762 30.19 88.6762 30.29 88.6762 30.42V32.76C88.6762 32.89 88.7762 32.99 88.9062 32.99H89.8462C89.9762 32.99 90.0762 32.89 90.0762 32.76V26.22C90.0762 26.09 89.9762 25.99 89.8462 25.99H88.9062C88.7762 25.99 88.6762 26.09 88.6762 26.22V28.56C88.6762 28.69 88.5762 28.79 88.4462 28.79H84.7062C84.5762 28.79 84.4762 28.69 84.4762 28.56V26.22C84.4762 26.09 84.3762 25.99 84.2462 25.99H83.3062C83.1762 25.99 83.0762 26.09 83.0762 26.22V32.76ZM91.384 32.76C91.384 32.89 91.484 32.99 91.614 32.99H92.554C92.684 32.99 92.784 32.89 92.784 32.76V30.42C92.784 30.29 92.884 30.19 93.014 30.19H96.754C96.884 30.19 96.984 30.29 96.984 30.42V32.76C96.984 32.89 97.084 32.99 97.214 32.99H98.154C98.284 32.99 98.384 32.89 98.384 32.76V26.22C98.384 26.09 98.284 25.99 98.154 25.99H97.214C97.084 25.99 96.984 26.09 96.984 26.22V28.56C96.984 28.69 96.884 28.79 96.754 28.79H93.014C92.884 28.79 92.784 28.69 92.784 28.56V26.22C92.784 26.09 92.684 25.99 92.554 25.99H91.614C91.484 25.99 91.384 26.09 91.384 26.22V32.76ZM105.062 28.8C105.192 28.8 105.292 28.9 105.292 29.03V31.37C105.292 31.5 105.192 31.6 105.062 31.6H101.322C101.192 31.6 101.092 31.5 101.092 31.37V29.03C101.092 28.9 101.192 28.8 101.322 28.8H105.062ZM99.6918 31.6C99.6918 32.37 100.322 33 101.092 33H105.292C106.062 33 106.692 32.37 106.692 31.6V28.8C106.692 28.03 106.062 27.4 105.292 27.4H101.322C101.192 27.4 101.092 27.3 101.092 27.17V26.23C101.092 26.1 100.992 26 100.862 26H99.9218C99.7918 26 99.6918 26.1 99.6918 26.23V31.6ZM107.392 32.77C107.392 32.9 107.492 33 107.622 33H108.562C108.692 33 108.792 32.9 108.792 32.77V26.23C108.792 26.1 108.692 26 108.562 26H107.622C107.492 26 107.392 26.1 107.392 26.23V32.77ZM112.309 24.16V28.28C112.309 28.32 112.329 28.35 112.359 28.36C112.399 28.38 112.429 28.37 112.459 28.34L116.009 24.11C116.029 24.08 116.039 24.03 116.019 23.99C115.999 23.95 115.969 23.93 115.929 23.93H112.539C112.409 23.93 112.309 24.03 112.309 24.16ZM110.099 26.22V32.76C110.099 32.88 110.199 33 110.329 33H111.269C111.419 33 111.559 32.93 111.659 32.82L115.559 28.31C115.569 28.29 115.599 28.28 115.619 28.28C115.629 28.28 115.639 28.28 115.649 28.28C115.689 28.29 115.709 28.33 115.709 28.36V32.76C115.709 32.89 115.809 33 115.939 33H116.879C117.009 33 117.109 32.89 117.109 32.76V26.22C117.109 26.09 117.009 25.99 116.879 25.99H115.939C115.789 25.99 115.649 26.05 115.549 26.16L111.659 30.68C111.629 30.7 111.589 30.71 111.559 30.7C111.529 30.69 111.499 30.66 111.499 30.62V26.22C111.499 26.09 111.399 25.99 111.269 25.99H110.329C110.209 25.99 110.099 26.09 110.099 26.22Z" fill="#D7C68A"/>
<path d="M18.3469 38.46V49.2C18.3469 50.74 19.6069 52 21.1469 52H33.2869C33.5469 52 33.7469 51.8 33.7469 51.54V49.66C33.7469 49.4 33.5469 49.2 33.2869 49.2H32.8069C32.5469 49.2 32.3469 49 32.3469 48.74V38.46C32.3469 38.2 32.1469 38 31.8869 38H30.0069C29.7469 38 29.5469 38.2 29.5469 38.46V48.74C29.5469 49 29.3469 49.2 29.0869 49.2H21.6069C21.3469 49.2 21.1469 49 21.1469 48.74V38.46C21.1469 38.2 20.9469 38 20.6869 38H18.8069C18.5469 38 18.3469 38.2 18.3469 38.46ZM35.7633 49.2C35.7633 50.74 37.0233 52 38.5633 52H47.9033C48.1633 52 48.3633 51.8 48.3633 51.54V49.66C48.3633 49.4 48.1633 49.2 47.9033 49.2H39.0233C38.7633 49.2 38.5633 49 38.5633 48.74V46.86C38.5633 46.6 38.7633 46.4 39.0233 46.4H47.9033C48.1633 46.4 48.3633 46.2 48.3633 45.94V44.06C48.3633 43.8 48.1633 43.6 47.9033 43.6H39.0233C38.7633 43.6 38.5633 43.4 38.5633 43.14V41.26C38.5633 41 38.7633 40.8 39.0233 40.8H47.9033C48.1633 40.8 48.3633 40.6 48.3633 40.34V38.46C48.3633 38.2 48.1633 38 47.9033 38H38.5633C37.0233 38 35.7633 39.26 35.7633 40.8V49.2ZM50.9922 51.52C50.9922 51.78 51.1922 51.98 51.4522 51.98H53.3322C53.5922 51.98 53.7922 51.78 53.7922 51.52V46.84C53.7922 46.58 53.9922 46.38 54.2522 46.38H61.7322C61.9922 46.38 62.1922 46.58 62.1922 46.84V51.52C62.1922 51.78 62.3922 51.98 62.6522 51.98H64.5322C64.7922 51.98 64.9922 51.78 64.9922 51.52V38.44C64.9922 38.18 64.7922 37.98 64.5322 37.98H62.6522C62.3922 37.98 62.1922 38.18 62.1922 38.44V43.12C62.1922 43.38 61.9922 43.58 61.7322 43.58H54.2522C53.9922 43.58 53.7922 43.38 53.7922 43.12V38.44C53.7922 38.18 53.5922 37.98 53.3322 37.98H51.4522C51.1922 37.98 50.9922 38.18 50.9922 38.44V51.52ZM67.4125 38.46V40.34C67.4125 40.6 67.6125 40.8 67.8725 40.8H72.5525C72.8125 40.8 73.0125 41 73.0125 41.26V51.54C73.0125 51.8 73.2125 52 73.4725 52H75.3525C75.6125 52 75.8125 51.8 75.8125 51.54V41.26C75.8125 41 76.0125 40.8 76.2725 40.8H80.9525C81.2125 40.8 81.4125 40.6 81.4125 40.34V38.46C81.4125 38.2 81.2125 38 80.9525 38H67.8725C67.6125 38 67.4125 38.2 67.4125 38.46ZM94.3775 40.8C94.6375 40.8 94.8375 41 94.8375 41.26V45.94C94.8375 46.2 94.6375 46.4 94.3775 46.4H86.8975C86.6375 46.4 86.4375 46.2 86.4375 45.94V41.26C86.4375 41 86.6375 40.8 86.8975 40.8H94.3775ZM83.6375 51.54C83.6375 51.8 83.8375 52 84.0975 52H85.9775C86.2375 52 86.4375 51.8 86.4375 51.54V49.66C86.4375 49.4 86.6375 49.2 86.8975 49.2H94.8375C96.3775 49.2 97.6375 47.94 97.6375 46.4V40.8C97.6375 39.26 96.3775 38 94.8375 38H86.4375C84.8975 38 83.6375 39.26 83.6375 40.8V51.54Z" fill="#D7C68A"/>
</svg>
