<svg width="113" height="50" viewBox="0 0 113 50" fill="none" xmlns="http://www.w3.org/2000/svg">
<g clip-path="url(#clip0_101_84)">
<path d="M17.0611 12.0755V22.2076C17.0611 22.4528 17.2502 22.6415 17.496 22.6415H19.2733C19.5191 22.6415 19.7082 22.4528 19.7082 22.2076V12.5094C19.7082 12.2642 19.8973 12.0755 20.1431 12.0755H27.2145C27.4603 12.0755 27.6494 12.2642 27.6494 12.5094V22.2076C27.6494 22.4528 27.8385 22.6415 28.0843 22.6415H29.8616C30.1074 22.6415 30.2964 22.4528 30.2964 22.2076V12.0755C30.2964 10.6226 29.1053 9.43397 27.6494 9.43397H19.7082C18.2523 9.43397 17.0611 10.6226 17.0611 12.0755ZM32.7507 20C32.7507 21.4528 33.9419 22.6415 35.3978 22.6415H44.2276C44.4734 22.6415 44.6625 22.4528 44.6625 22.2076V20.434C44.6625 20.1887 44.4734 20 44.2276 20H35.8327C35.5869 20 35.3978 19.8113 35.3978 19.566V17.7925C35.3978 17.5472 35.5869 17.3585 35.8327 17.3585H44.2276C44.4734 17.3585 44.6625 17.1698 44.6625 16.9245V15.1509C44.6625 14.9057 44.4734 14.717 44.2276 14.717H35.8327C35.5869 14.717 35.3978 14.5283 35.3978 14.283V12.5094C35.3978 12.2642 35.5869 12.0755 35.8327 12.0755H44.2276C44.4734 12.0755 44.6625 11.8868 44.6625 11.6415V9.86793C44.6625 9.62264 44.4734 9.43397 44.2276 9.43397H35.3978C33.9419 9.43397 32.7507 10.6226 32.7507 12.0755V20ZM57.3012 12.0755C57.547 12.0755 57.736 12.2642 57.736 12.5094V16.9245C57.736 17.1698 57.547 17.3585 57.3012 17.3585H50.2297C49.9839 17.3585 49.7949 17.1698 49.7949 16.9245V12.5094C49.7949 12.2642 49.9839 12.0755 50.2297 12.0755H57.3012ZM47.1478 22.2076C47.1478 22.4528 47.3369 22.6415 47.5827 22.6415H49.36C49.6058 22.6415 49.7949 22.4528 49.7949 22.2076V20.434C49.7949 20.1887 49.9839 20 50.2297 20H57.736C59.1919 20 60.3831 18.8113 60.3831 17.3585V12.0755C60.3831 10.6226 59.1919 9.43397 57.736 9.43397H49.7949C48.339 9.43397 47.1478 10.6226 47.1478 12.0755V22.2076ZM65.9378 20C65.692 20 65.5029 19.8113 65.5029 19.566V17.7925C65.5029 17.5472 65.692 17.3585 65.9378 17.3585H73.0092C73.255 17.3585 73.4441 17.5472 73.4441 17.7925V19.566C73.4441 19.8113 73.255 20 73.0092 20H65.9378ZM65.9378 14.717C65.692 14.717 65.5029 14.5283 65.5029 14.283V12.5094C65.5029 12.2642 65.692 12.0755 65.9378 12.0755H73.0092C73.255 12.0755 73.4441 12.2642 73.4441 12.5094V14.283C73.4441 14.5283 73.255 14.717 73.0092 14.717H65.9378ZM62.8558 20C62.8558 21.4528 64.047 22.6415 65.5029 22.6415H73.4441C74.8999 22.6415 76.0911 21.4528 76.0911 20V18.3019C76.0911 17.6981 75.8453 17.1132 75.4294 16.6981L74.7676 16.0377L75.4294 15.3774C75.8453 14.9623 76.0911 14.3774 76.0911 13.7736V12.0755C76.0911 10.6226 74.8999 9.43397 73.4441 9.43397H65.5029C64.047 9.43397 62.8558 10.6226 62.8558 12.0755V20ZM88.7172 14.717C88.963 14.717 89.1521 14.9057 89.1521 15.1509V19.566C89.1521 19.8113 88.963 20 88.7172 20H81.6458C81.4 20 81.2109 19.8113 81.2109 19.566V15.1509C81.2109 14.9057 81.4 14.717 81.6458 14.717H88.7172ZM78.5639 20C78.5639 21.4528 79.755 22.6415 81.2109 22.6415H89.1521C90.608 22.6415 91.7991 21.4528 91.7991 20V14.717C91.7991 13.2642 90.608 12.0755 89.1521 12.0755H81.6458C81.4 12.0755 81.2109 11.8868 81.2109 11.6415V9.86793C81.2109 9.62264 81.0218 9.43397 80.776 9.43397H78.9987C78.7529 9.43397 78.5639 9.62264 78.5639 9.86793V20ZM93.1227 22.2076C93.1227 22.4528 93.3117 22.6415 93.5575 22.6415H95.3348C95.5806 22.6415 95.7696 22.4528 95.7696 22.2076V9.86793C95.7696 9.62264 95.5806 9.43397 95.3348 9.43397H93.5575C93.3117 9.43397 93.1227 9.62264 93.1227 9.86793V22.2076ZM102.42 5.96227V13.7359C102.42 13.8113 102.458 13.8679 102.515 13.8868C102.591 13.9245 102.647 13.9057 102.704 13.8491L109.416 5.86793C109.454 5.81132 109.473 5.71698 109.435 5.64151C109.397 5.56604 109.341 5.52831 109.265 5.52831H102.855C102.609 5.52831 102.42 5.71698 102.42 5.96227ZM98.2418 9.84906V22.1887C98.2418 22.4151 98.4309 22.6415 98.6767 22.6415H100.454C100.738 22.6415 101.002 22.5094 101.191 22.3019L108.565 13.7925C108.584 13.7547 108.641 13.7359 108.679 13.7359C108.698 13.7359 108.717 13.7359 108.735 13.7359C108.811 13.7547 108.849 13.8302 108.849 13.8868V22.1887C108.849 22.434 109.038 22.6415 109.284 22.6415H111.061C111.307 22.6415 111.496 22.434 111.496 22.1887V9.84906C111.496 9.60378 111.307 9.4151 111.061 9.4151H109.284C109 9.4151 108.736 9.5283 108.546 9.73585L101.191 18.2642C101.135 18.3019 101.059 18.3208 101.002 18.3019C100.946 18.283 100.889 18.2264 100.889 18.1509V9.84906C100.889 9.60378 100.7 9.4151 100.454 9.4151H98.6767C98.4498 9.4151 98.2418 9.60378 98.2418 9.84906Z" fill="white"/>
<path d="M18.2772 27.7358L16.9158 32.8019C16.8969 32.8585 16.9064 32.9151 16.9442 32.9528C16.9726 32.9906 17.0198 33.0189 17.0766 33.0189H18.003C18.1354 33.0189 18.2488 32.934 18.2866 32.8019L19.5913 27.9528C19.6196 27.8208 19.7331 27.7358 19.8654 27.7358H21.9263C22.0492 27.7358 22.1532 27.8302 22.1532 27.9528V32.8019C22.1532 32.9245 22.2478 33.0189 22.3707 33.0189H23.2499C23.3728 33.0189 23.4768 32.9245 23.4768 32.8019V26.6321C23.4768 26.5094 23.3728 26.4151 23.2499 26.4151H19.9978C19.1847 26.4151 18.4852 26.9528 18.2772 27.7358ZM31.3226 32.8019C31.3226 30.7453 31.3132 28.6887 31.3226 26.6321C31.3226 26.5189 31.2187 26.4151 31.0958 26.4151H30.2166C30.0747 26.4151 29.9424 26.4811 29.8479 26.5849L26.1703 30.8302C26.142 30.8585 26.1136 30.8679 26.0758 30.8585C26.0474 30.8491 26.0285 30.8113 26.0285 30.783V26.6321C26.0285 26.5189 25.9245 26.4151 25.8111 26.4151H24.9224C24.7995 26.4151 24.705 26.5189 24.705 26.6321V32.8019C24.705 32.9151 24.7995 33.0189 24.9224 33.0189H25.8111C25.9245 33.0189 26.0947 32.9434 26.1703 32.8491C27.3993 31.4434 28.6283 30.0189 29.8479 28.6038C29.9329 28.5094 29.9991 28.5377 29.9991 28.6604V32.8019C29.9991 32.9151 30.0937 33.0189 30.2166 33.0189H31.0958C31.2187 33.0189 31.3226 32.9151 31.3226 32.8019ZM32.5498 26.6321V31.6981C32.5498 32.4245 33.1454 33.0189 33.8734 33.0189H39.6118C39.7347 33.0189 39.8293 32.9245 39.8293 32.8019V31.9151C39.8293 31.7925 39.7347 31.6981 39.6118 31.6981H39.3849C39.262 31.6981 39.1675 31.6038 39.1675 31.4811V26.6321C39.1675 26.5094 39.073 26.4151 38.9501 26.4151H38.0614C37.9385 26.4151 37.844 26.5094 37.844 26.6321V31.4811C37.844 31.6038 37.7494 31.6981 37.6265 31.6981H34.0908C33.9679 31.6981 33.8734 31.6038 33.8734 31.4811V26.6321C33.8734 26.5094 33.7788 26.4151 33.6559 26.4151H32.7673C32.6444 26.4151 32.5498 26.5094 32.5498 26.6321ZM40.7824 31.6981C40.7824 32.4245 41.378 33.0189 42.1059 33.0189H46.5208C46.6437 33.0189 46.7383 32.9245 46.7383 32.8019V31.9151C46.7383 31.7925 46.6437 31.6981 46.5208 31.6981H42.3234C42.2005 31.6981 42.1059 31.6038 42.1059 31.4811V30.5943C42.1059 30.4717 42.2005 30.3774 42.3234 30.3774H46.5208C46.6437 30.3774 46.7383 30.283 46.7383 30.1604V29.2736C46.7383 29.1509 46.6437 29.0566 46.5208 29.0566H42.3234C42.2005 29.0566 42.1059 28.9623 42.1059 28.8396V27.9528C42.1059 27.8302 42.2005 27.7358 42.3234 27.7358H46.5208C46.6437 27.7358 46.7383 27.6415 46.7383 27.5189V26.6321C46.7383 26.5094 46.6437 26.4151 46.5208 26.4151H42.1059C41.378 26.4151 40.7824 27.0094 40.7824 27.7358V31.6981ZM47.9809 32.7925C47.9809 32.9151 48.0754 33.0094 48.1983 33.0094H49.087C49.2099 33.0094 49.3044 32.9151 49.3044 32.7925V30.5849C49.3044 30.4623 49.3989 30.3679 49.5218 30.3679H53.0576C53.1805 30.3679 53.275 30.4623 53.275 30.5849V32.7925C53.275 32.9151 53.3695 33.0094 53.4924 33.0094H54.3811C54.504 33.0094 54.5985 32.9151 54.5985 32.7925V26.6226C54.5985 26.5 54.504 26.4057 54.3811 26.4057H53.4924C53.3695 26.4057 53.275 26.5 53.275 26.6226V28.8302C53.275 28.9528 53.1805 29.0472 53.0576 29.0472H49.5218C49.3989 29.0472 49.3044 28.9528 49.3044 28.8302V26.6226C49.3044 26.5 49.2099 26.4057 49.087 26.4057H48.1983C48.0754 26.4057 47.9809 26.5 47.9809 26.6226V32.7925ZM55.8349 32.8019C55.8349 32.9245 55.9294 33.0189 56.0523 33.0189H60.4672C61.1952 33.0189 61.7908 32.4245 61.7908 31.6981V30.8396C61.7908 30.5472 61.6679 30.2547 61.4599 30.0472L61.129 29.717L61.4599 29.3868C61.6679 29.1792 61.7908 28.8868 61.7908 28.5943V27.7358C61.7908 27.0094 61.1952 26.4151 60.4672 26.4151H56.0523C55.9294 26.4151 55.8349 26.5094 55.8349 26.6321V27.5189C55.8349 27.6415 55.9294 27.7358 56.0523 27.7358H60.2498C60.3727 27.7358 60.4672 27.8302 60.4672 27.9528V28.8396C60.4672 28.9623 60.3727 29.0566 60.2498 29.0566H56.0523C55.9294 29.0566 55.8349 29.1509 55.8349 29.2736V30.1604C55.8349 30.283 55.9294 30.3774 56.0523 30.3774H60.2498C60.3727 30.3774 60.4672 30.4717 60.4672 30.5943V31.4811C60.4672 31.6038 60.3727 31.6981 60.2498 31.6981H56.0523C55.9294 31.6981 55.8349 31.7925 55.8349 31.9151V32.8019ZM69.6511 32.8019C69.6511 30.7453 69.6417 28.6887 69.6511 26.6321C69.6511 26.5189 69.5471 26.4151 69.4242 26.4151H68.545C68.4032 26.4151 68.2709 26.4811 68.1763 26.5849L64.4988 30.8302C64.4704 30.8585 64.4421 30.8679 64.4043 30.8585C64.3759 30.8491 64.357 30.8113 64.357 30.783V26.6321C64.357 26.5189 64.253 26.4151 64.1396 26.4151H63.2509C63.128 26.4151 63.0335 26.5189 63.0335 26.6321V32.8019C63.0335 32.9151 63.128 33.0189 63.2509 33.0189H64.1396C64.253 33.0189 64.4232 32.9434 64.4988 32.8491C65.7278 31.4434 66.9568 30.0189 68.1763 28.6038C68.2614 28.5094 68.3276 28.5377 68.3276 28.6604V32.8019C68.3276 32.9151 68.4221 33.0189 68.545 33.0189H69.4242C69.5471 33.0189 69.6511 32.9151 69.6511 32.8019ZM70.6936 31.6981C70.6936 32.4245 71.2892 33.0189 72.0171 33.0189H75.9877C76.7156 33.0189 77.3112 32.4245 77.3112 31.6981V27.7358C77.3112 27.0094 76.7156 26.4151 75.9877 26.4151H72.0171C71.2892 26.4151 70.6936 27.0094 70.6936 27.7358V31.6981ZM72.2345 31.6981C72.1116 31.6981 72.0171 31.6038 72.0171 31.4811V27.9528C72.0171 27.8302 72.1116 27.7358 72.2345 27.7358H75.7703C75.8932 27.7358 75.9877 27.8302 75.9877 27.9528V31.4811C75.9877 31.6038 75.8932 31.6981 75.7703 31.6981H72.2345ZM78.5384 32.7925C78.5384 32.9151 78.633 33.0094 78.7559 33.0094H79.6445C79.7674 33.0094 79.8619 32.9151 79.8619 32.7925V30.5849C79.8619 30.4623 79.9565 30.3679 80.0794 30.3679H83.6151C83.738 30.3679 83.8325 30.4623 83.8325 30.5849V32.7925C83.8325 32.9151 83.9271 33.0094 84.05 33.0094H84.9386C85.0615 33.0094 85.1561 32.9151 85.1561 32.7925V26.6226C85.1561 26.5 85.0615 26.4057 84.9386 26.4057H84.05C83.9271 26.4057 83.8325 26.5 83.8325 26.6226V28.8302C83.8325 28.9528 83.738 29.0472 83.6151 29.0472H80.0794C79.9565 29.0472 79.8619 28.9528 79.8619 28.8302V26.6226C79.8619 26.5 79.7674 26.4057 79.6445 26.4057H78.7559C78.633 26.4057 78.5384 26.5 78.5384 26.6226V32.7925ZM86.3924 32.7925C86.3924 32.9151 86.487 33.0094 86.6099 33.0094H87.4985C87.6214 33.0094 87.716 32.9151 87.716 32.7925V30.5849C87.716 30.4623 87.8105 30.3679 87.9334 30.3679H91.4691C91.592 30.3679 91.6866 30.4623 91.6866 30.5849V32.7925C91.6866 32.9151 91.7811 33.0094 91.904 33.0094H92.7926C92.9155 33.0094 93.0101 32.9151 93.0101 32.7925V26.6226C93.0101 26.5 92.9155 26.4057 92.7926 26.4057H91.904C91.7811 26.4057 91.6866 26.5 91.6866 26.6226V28.8302C91.6866 28.9528 91.592 29.0472 91.4691 29.0472H87.9334C87.8105 29.0472 87.716 28.9528 87.716 28.8302V26.6226C87.716 26.5 87.6214 26.4057 87.4985 26.4057H86.6099C86.487 26.4057 86.3924 26.5 86.3924 26.6226V32.7925ZM99.3233 29.0566C99.4462 29.0566 99.5408 29.1509 99.5408 29.2736V31.4811C99.5408 31.6038 99.4462 31.6981 99.3233 31.6981H95.7876C95.6647 31.6981 95.5702 31.6038 95.5702 31.4811V29.2736C95.5702 29.1509 95.6647 29.0566 95.7876 29.0566H99.3233ZM94.2465 31.6981C94.2465 32.4245 94.8422 33.0189 95.5702 33.0189H99.5408C100.269 33.0189 100.864 32.4245 100.864 31.6981V29.0566C100.864 28.3302 100.269 27.7358 99.5408 27.7358H95.7876C95.6647 27.7358 95.5702 27.6415 95.5702 27.5189V26.6321C95.5702 26.5094 95.4756 26.4151 95.3527 26.4151H94.4639C94.341 26.4151 94.2465 26.5094 94.2465 26.6321V31.6981ZM101.526 32.8019C101.526 32.9245 101.621 33.0189 101.743 33.0189H102.632C102.755 33.0189 102.85 32.9245 102.85 32.8019V26.6321C102.85 26.5094 102.755 26.4151 102.632 26.4151H101.743C101.621 26.4151 101.526 26.5094 101.526 26.6321V32.8019ZM106.174 24.6792V28.566C106.174 28.6038 106.193 28.6321 106.222 28.6415C106.26 28.6604 106.288 28.6509 106.316 28.6226L109.672 24.6321C109.691 24.6038 109.701 24.5566 109.682 24.5189C109.663 24.4811 109.635 24.4623 109.597 24.4623H106.392C106.269 24.4623 106.174 24.5566 106.174 24.6792ZM104.085 26.6226V32.7925C104.085 32.9057 104.18 33.0189 104.303 33.0189H105.191C105.333 33.0189 105.465 32.9528 105.56 32.8491L109.247 28.5943C109.256 28.5755 109.285 28.566 109.304 28.566C109.313 28.566 109.323 28.566 109.332 28.566C109.37 28.5755 109.389 28.6132 109.389 28.6415V32.7925C109.389 32.9151 109.483 33.0189 109.606 33.0189H110.495C110.618 33.0189 110.712 32.9151 110.712 32.7925V26.6226C110.712 26.5 110.618 26.4057 110.495 26.4057H109.606C109.464 26.4057 109.332 26.4623 109.238 26.566L105.56 30.8302C105.532 30.8491 105.494 30.8585 105.465 30.8491C105.437 30.8396 105.409 30.8113 105.409 30.7736V26.6226C105.409 26.5 105.314 26.4057 105.191 26.4057H104.303C104.189 26.4057 104.085 26.5 104.085 26.6226Z" fill="white"/>
<path d="M17.3448 37.2264V47.3585C17.3448 48.8113 18.5359 50 19.9918 50H31.4687C31.7145 50 31.9036 49.8113 31.9036 49.566V47.7925C31.9036 47.5472 31.7145 47.3585 31.4687 47.3585H31.0149C30.7691 47.3585 30.5801 47.1698 30.5801 46.9245V37.2264C30.5801 36.9811 30.391 36.7925 30.1452 36.7925H28.3679C28.1221 36.7925 27.933 36.9811 27.933 37.2264V46.9245C27.933 47.1698 27.7439 47.3585 27.4981 47.3585H20.4267C20.1809 47.3585 19.9918 47.1698 19.9918 46.9245V37.2264C19.9918 36.9811 19.8027 36.7925 19.5569 36.7925H17.7796C17.5338 36.7925 17.3448 36.9811 17.3448 37.2264ZM33.8098 47.3585C33.8098 48.8113 35.001 50 36.4569 50H45.2867C45.5325 50 45.7216 49.8113 45.7216 49.566V47.7925C45.7216 47.5472 45.5325 47.3585 45.2867 47.3585H36.8918C36.646 47.3585 36.4569 47.1698 36.4569 46.9245V45.1509C36.4569 44.9057 36.646 44.717 36.8918 44.717H45.2867C45.5325 44.717 45.7216 44.5283 45.7216 44.283V42.5094C45.7216 42.2642 45.5325 42.0755 45.2867 42.0755H36.8918C36.646 42.0755 36.4569 41.8868 36.4569 41.6415V39.8679C36.4569 39.6226 36.646 39.434 36.8918 39.434H45.2867C45.5325 39.434 45.7216 39.2453 45.7216 39V37.2264C45.7216 36.9811 45.5325 36.7925 45.2867 36.7925H36.4569C35.001 36.7925 33.8098 37.9811 33.8098 39.434V47.3585ZM48.2069 49.5472C48.2069 49.7925 48.396 49.9811 48.6418 49.9811H50.4191C50.6649 49.9811 50.854 49.7925 50.854 49.5472V45.1321C50.854 44.8868 51.043 44.6981 51.2888 44.6981H58.3603C58.6061 44.6981 58.7951 44.8868 58.7951 45.1321V49.5472C58.7951 49.7925 58.9842 49.9811 59.23 49.9811H61.0073C61.2531 49.9811 61.4422 49.7925 61.4422 49.5472V37.2076C61.4422 36.9623 61.2531 36.7736 61.0073 36.7736H59.23C58.9842 36.7736 58.7951 36.9623 58.7951 37.2076V41.6226C58.7951 41.8679 58.6061 42.0566 58.3603 42.0566H51.2888C51.043 42.0566 50.854 41.8679 50.854 41.6226V37.2076C50.854 36.9623 50.6649 36.7736 50.4191 36.7736H48.6418C48.396 36.7736 48.2069 36.9623 48.2069 37.2076V49.5472ZM63.7303 37.2264V39C63.7303 39.2453 63.9194 39.434 64.1652 39.434H68.5895C68.8353 39.434 69.0244 39.6226 69.0244 39.8679V49.566C69.0244 49.8113 69.2135 50 69.4593 50H71.2366C71.4824 50 71.6715 49.8113 71.6715 49.566V39.8679C71.6715 39.6226 71.8606 39.434 72.1063 39.434H76.5307C76.7765 39.434 76.9656 39.2453 76.9656 39V37.2264C76.9656 36.9811 76.7765 36.7925 76.5307 36.7925H64.1652C63.9194 36.7925 63.7303 36.9811 63.7303 37.2264ZM89.2224 39.434C89.4682 39.434 89.6573 39.6226 89.6573 39.8679V44.283C89.6573 44.5283 89.4682 44.717 89.2224 44.717H82.151C81.9052 44.717 81.7161 44.5283 81.7161 44.283V39.8679C81.7161 39.6226 81.9052 39.434 82.151 39.434H89.2224ZM79.0691 49.566C79.0691 49.8113 79.2581 50 79.5039 50H81.2812C81.527 50 81.7161 49.8113 81.7161 49.566V47.7925C81.7161 47.5472 81.9052 47.3585 82.151 47.3585H89.6573C91.1132 47.3585 92.3044 46.1698 92.3044 44.717V39.434C92.3044 37.9811 91.1132 36.7925 89.6573 36.7925H81.7161C80.2602 36.7925 79.0691 37.9811 79.0691 39.434V49.566Z" fill="white"/>
<path d="M0 16.5425C0 15.9461 0.188801 15.365 0.539455 14.882L6.21172 7.06949C7.8248 4.84778 11.3445 5.98645 11.3445 8.73001V47.1698C11.3445 48.7329 10.0748 50 8.5084 50H2.83613C1.26978 50 0 48.7329 0 47.1698V16.5425Z" fill="white"/>
</g>
<defs>
<clipPath id="clip0_101_84">
<rect width="112.5" height="50" fill="white"/>
</clipPath>
</defs>
</svg>
