<svg width="483" height="484" viewBox="0 0 483 484" fill="none" xmlns="http://www.w3.org/2000/svg">
<circle cx="241.25" cy="241.5" r="227" stroke="#FFC858" stroke-width="3" stroke-dasharray="6 6"/>
<path d="M16.1642 226.086C15.3832 225.305 14.1168 225.305 13.3358 226.086L0.607928 238.814C-0.173117 239.595 -0.173113 240.861 0.60794 241.642C1.38899 242.423 2.65532 242.423 3.43637 241.642L14.75 230.328L26.0638 241.642C26.8448 242.423 28.1112 242.423 28.8922 241.642C29.6733 240.861 29.6732 239.595 28.8922 238.814L16.1642 226.086ZM16.7501 245.5L16.75 227.5L12.75 227.5L12.7501 245.5L16.7501 245.5Z" fill="#FFD172"/>
<path d="M225.353 467.053C224.563 467.824 224.547 469.091 225.318 469.881L237.888 482.766C238.659 483.556 239.926 483.572 240.716 482.801C241.507 482.029 241.523 480.763 240.751 479.972L229.578 468.52L241.031 457.347C241.822 456.575 241.837 455.309 241.066 454.519C240.295 453.728 239.028 453.712 238.238 454.484L225.353 467.053ZM244.773 466.707L226.775 466.485L226.725 470.485L244.724 470.707L244.773 466.707Z" fill="#FFD172"/>
<path d="M467.184 245.445C467.983 246.207 469.249 246.176 470.011 245.376L482.428 232.345C483.19 231.545 483.16 230.279 482.36 229.517C481.56 228.755 480.294 228.786 479.532 229.585L468.495 241.169L456.911 230.132C456.112 229.37 454.846 229.401 454.084 230.2C453.322 231 453.352 232.266 454.152 233.028L467.184 245.445ZM466.129 226.05L466.564 244.045L470.563 243.948L470.128 225.954L466.129 226.05Z" fill="#FFD172"/>
<path d="M245.215 15.5587C245.961 14.7446 245.907 13.4795 245.093 12.7329L231.826 0.567148C231.012 -0.179405 229.747 -0.124663 229.001 0.689421C228.254 1.5035 228.309 2.76865 229.123 3.5152L240.915 14.3292L230.101 26.1215C229.355 26.9355 229.409 28.2007 230.223 28.9472C231.037 29.6938 232.303 29.6391 233.049 28.825L245.215 15.5587ZM225.844 16.9832L243.827 16.2051L243.654 12.2088L225.671 12.987L225.844 16.9832Z" fill="#FFD172"/>
</svg>
